<mxfile host="app.diagrams.net" modified="2023-05-11T06:54:43.323Z" agent="Mozilla/5.0 (Windows NT 10.0; Win64; x64) AppleWebKit/537.36 (KHTML, like Gecko) Chrome/112.0.0.0 Safari/537.36" etag="_c2UMe3CNXsLvQNpOTxl" version="21.2.9" type="device">
  <diagram name="Page-1" id="kD3xbtRF4Qw1SZpTpUKD">
    <mxGraphModel dx="867" dy="1107" grid="1" gridSize="10" guides="1" tooltips="1" connect="1" arrows="1" fold="1" page="1" pageScale="1" pageWidth="1169" pageHeight="827" math="0" shadow="0">
      <root>
        <mxCell id="0" />
        <mxCell id="1" parent="0" />
        <mxCell id="hMM3jDn0ftNgphWTLsed-1" value="Pegawai" style="swimlane;whiteSpace=wrap;html=1;" parent="1" vertex="1">
          <mxGeometry x="10" y="7" width="280" height="820" as="geometry" />
        </mxCell>
        <mxCell id="hMM3jDn0ftNgphWTLsed-14" value="" style="edgeStyle=orthogonalEdgeStyle;rounded=0;orthogonalLoop=1;jettySize=auto;html=1;" parent="hMM3jDn0ftNgphWTLsed-1" source="dr7BZVyFu7AFei0hmRka-1" target="hMM3jDn0ftNgphWTLsed-12" edge="1">
          <mxGeometry relative="1" as="geometry" />
        </mxCell>
        <mxCell id="dr7BZVyFu7AFei0hmRka-1" value="&lt;font face=&quot;Georgia&quot; style=&quot;font-size: 11px;&quot;&gt;MULAI&lt;/font&gt;" style="strokeWidth=2;html=1;shape=mxgraph.flowchart.start_1;whiteSpace=wrap;" parent="hMM3jDn0ftNgphWTLsed-1" vertex="1">
          <mxGeometry x="90" y="43" width="100" height="70" as="geometry" />
        </mxCell>
        <mxCell id="hMM3jDn0ftNgphWTLsed-12" value="&lt;font style=&quot;font-size: 11px;&quot;&gt;PENGAJUAN&amp;nbsp;&lt;br&gt;PERJALANAN DINAS&lt;/font&gt;" style="shape=parallelogram;html=1;strokeWidth=2;perimeter=parallelogramPerimeter;whiteSpace=wrap;rounded=1;arcSize=12;size=0.23;" parent="hMM3jDn0ftNgphWTLsed-1" vertex="1">
          <mxGeometry x="45" y="138.63" width="190" height="67" as="geometry" />
        </mxCell>
        <mxCell id="hMM3jDn0ftNgphWTLsed-6" value="Penanggung Jawab Kegiatan" style="swimlane;whiteSpace=wrap;html=1;" parent="1" vertex="1">
          <mxGeometry x="290" y="7" width="280" height="820" as="geometry" />
        </mxCell>
        <mxCell id="hMM3jDn0ftNgphWTLsed-20" value="" style="edgeStyle=orthogonalEdgeStyle;rounded=0;orthogonalLoop=1;jettySize=auto;html=1;" parent="hMM3jDn0ftNgphWTLsed-6" source="hMM3jDn0ftNgphWTLsed-15" target="hMM3jDn0ftNgphWTLsed-19" edge="1">
          <mxGeometry relative="1" as="geometry" />
        </mxCell>
        <mxCell id="hMM3jDn0ftNgphWTLsed-15" value="&lt;font style=&quot;font-size: 11px;&quot;&gt;PROSES&lt;br&gt;CEK PENGAJUAN&lt;/font&gt;" style="rounded=1;whiteSpace=wrap;html=1;strokeWidth=2;arcSize=12;" parent="hMM3jDn0ftNgphWTLsed-6" vertex="1">
          <mxGeometry x="67.5" y="137.39" width="122.5" height="68.24" as="geometry" />
        </mxCell>
        <mxCell id="hMM3jDn0ftNgphWTLsed-23" value="" style="edgeStyle=orthogonalEdgeStyle;rounded=0;orthogonalLoop=1;jettySize=auto;html=1;" parent="hMM3jDn0ftNgphWTLsed-6" source="hMM3jDn0ftNgphWTLsed-19" target="hMM3jDn0ftNgphWTLsed-22" edge="1">
          <mxGeometry relative="1" as="geometry" />
        </mxCell>
        <mxCell id="hMM3jDn0ftNgphWTLsed-19" value="&lt;font style=&quot;font-size: 11px;&quot;&gt;VERIFIKASI&lt;/font&gt;" style="rhombus;whiteSpace=wrap;html=1;rounded=1;strokeWidth=2;arcSize=12;" parent="hMM3jDn0ftNgphWTLsed-6" vertex="1">
          <mxGeometry x="48.75" y="243" width="160" height="112.75" as="geometry" />
        </mxCell>
        <mxCell id="hMM3jDn0ftNgphWTLsed-22" value="PILIH &lt;br&gt;MATA ANGGARAN" style="shape=parallelogram;perimeter=parallelogramPerimeter;whiteSpace=wrap;html=1;fixedSize=1;rounded=1;strokeWidth=2;arcSize=12;" parent="hMM3jDn0ftNgphWTLsed-6" vertex="1">
          <mxGeometry x="53.75" y="383" width="150" height="67" as="geometry" />
        </mxCell>
        <mxCell id="hMM3jDn0ftNgphWTLsed-8" value="Pejabat Pembuat Komitmen" style="swimlane;whiteSpace=wrap;html=1;" parent="1" vertex="1">
          <mxGeometry x="570" y="7" width="280" height="820" as="geometry" />
        </mxCell>
        <mxCell id="hMM3jDn0ftNgphWTLsed-31" value="" style="edgeStyle=orthogonalEdgeStyle;rounded=0;orthogonalLoop=1;jettySize=auto;html=1;" parent="hMM3jDn0ftNgphWTLsed-8" source="hMM3jDn0ftNgphWTLsed-24" target="hMM3jDn0ftNgphWTLsed-30" edge="1">
          <mxGeometry relative="1" as="geometry" />
        </mxCell>
        <mxCell id="hMM3jDn0ftNgphWTLsed-24" value="PROSES CEK PENGAJUAN" style="whiteSpace=wrap;html=1;rounded=1;strokeWidth=2;arcSize=12;" parent="hMM3jDn0ftNgphWTLsed-8" vertex="1">
          <mxGeometry x="80" y="380" width="130" height="60" as="geometry" />
        </mxCell>
        <mxCell id="hMM3jDn0ftNgphWTLsed-33" value="" style="edgeStyle=orthogonalEdgeStyle;rounded=0;orthogonalLoop=1;jettySize=auto;html=1;" parent="hMM3jDn0ftNgphWTLsed-8" source="hMM3jDn0ftNgphWTLsed-30" target="hMM3jDn0ftNgphWTLsed-32" edge="1">
          <mxGeometry relative="1" as="geometry" />
        </mxCell>
        <mxCell id="hMM3jDn0ftNgphWTLsed-30" value="VERIFIKASI" style="rhombus;whiteSpace=wrap;html=1;rounded=1;strokeWidth=2;arcSize=12;" parent="hMM3jDn0ftNgphWTLsed-8" vertex="1">
          <mxGeometry x="77.5" y="473" width="135" height="107" as="geometry" />
        </mxCell>
        <mxCell id="hMM3jDn0ftNgphWTLsed-32" value="&#xa;&lt;span style=&quot;font-family: Helvetica; font-size: 12px; font-style: normal; font-variant-ligatures: normal; font-variant-caps: normal; font-weight: 400; letter-spacing: normal; orphans: 2; text-align: center; text-indent: 0px; text-transform: none; widows: 2; word-spacing: 0px; -webkit-text-stroke-width: 0px; text-decoration-thickness: initial; text-decoration-style: initial; text-decoration-color: initial; float: none; display: inline !important;&quot;&gt;PILIH BENDAHARA&lt;/span&gt;&lt;br style=&quot;border-color: rgb(0, 0, 0); font-family: Helvetica; font-size: 12px; font-style: normal; font-variant-ligatures: normal; font-variant-caps: normal; font-weight: 400; letter-spacing: normal; orphans: 2; text-align: center; text-indent: 0px; text-transform: none; widows: 2; word-spacing: 0px; -webkit-text-stroke-width: 0px; text-decoration-thickness: initial; text-decoration-style: initial; text-decoration-color: initial;&quot;&gt;&lt;span style=&quot;font-family: Helvetica; font-size: 12px; font-style: normal; font-variant-ligatures: normal; font-variant-caps: normal; font-weight: 400; letter-spacing: normal; orphans: 2; text-align: center; text-indent: 0px; text-transform: none; widows: 2; word-spacing: 0px; -webkit-text-stroke-width: 0px; text-decoration-thickness: initial; text-decoration-style: initial; text-decoration-color: initial; float: none; display: inline !important;&quot;&gt;&amp;amp;&lt;/span&gt;&lt;br style=&quot;border-color: rgb(0, 0, 0); font-family: Helvetica; font-size: 12px; font-style: normal; font-variant-ligatures: normal; font-variant-caps: normal; font-weight: 400; letter-spacing: normal; orphans: 2; text-align: center; text-indent: 0px; text-transform: none; widows: 2; word-spacing: 0px; -webkit-text-stroke-width: 0px; text-decoration-thickness: initial; text-decoration-style: initial; text-decoration-color: initial;&quot;&gt;&lt;span style=&quot;font-family: Helvetica; font-size: 12px; font-style: normal; font-variant-ligatures: normal; font-variant-caps: normal; font-weight: 400; letter-spacing: normal; orphans: 2; text-align: center; text-indent: 0px; text-transform: none; widows: 2; word-spacing: 0px; -webkit-text-stroke-width: 0px; text-decoration-thickness: initial; text-decoration-style: initial; text-decoration-color: initial; float: none; display: inline !important;&quot;&gt;TERBITKAN NOMOR&amp;nbsp;&lt;/span&gt;&lt;br style=&quot;border-color: rgb(0, 0, 0); font-family: Helvetica; font-size: 12px; font-style: normal; font-variant-ligatures: normal; font-variant-caps: normal; font-weight: 400; letter-spacing: normal; orphans: 2; text-align: center; text-indent: 0px; text-transform: none; widows: 2; word-spacing: 0px; -webkit-text-stroke-width: 0px; text-decoration-thickness: initial; text-decoration-style: initial; text-decoration-color: initial;&quot;&gt;&lt;span style=&quot;font-family: Helvetica; font-size: 12px; font-style: normal; font-variant-ligatures: normal; font-variant-caps: normal; font-weight: 400; letter-spacing: normal; orphans: 2; text-align: center; text-indent: 0px; text-transform: none; widows: 2; word-spacing: 0px; -webkit-text-stroke-width: 0px; text-decoration-thickness: initial; text-decoration-style: initial; text-decoration-color: initial; float: none; display: inline !important;&quot;&gt;SURAT TUGAS&lt;/span&gt;&#xa;&#xa;" style="shape=parallelogram;perimeter=parallelogramPerimeter;whiteSpace=wrap;html=1;fixedSize=1;rounded=1;strokeWidth=2;arcSize=12;strokeColor=default;fillColor=default;fontColor=default;labelBackgroundColor=default;" parent="hMM3jDn0ftNgphWTLsed-8" vertex="1">
          <mxGeometry x="53.75" y="603" width="182.5" height="107" as="geometry" />
        </mxCell>
        <mxCell id="hMM3jDn0ftNgphWTLsed-10" value="Bendahara" style="swimlane;whiteSpace=wrap;html=1;" parent="1" vertex="1">
          <mxGeometry x="850" y="7" width="280" height="820" as="geometry" />
        </mxCell>
        <mxCell id="hMM3jDn0ftNgphWTLsed-38" value="PENERBITAN BERKAS&lt;br&gt;CETAK KWITANSI, CETAK SURAT TUGAS" style="shape=parallelogram;perimeter=parallelogramPerimeter;whiteSpace=wrap;html=1;fixedSize=1;rounded=1;strokeWidth=2;arcSize=12;" parent="hMM3jDn0ftNgphWTLsed-10" vertex="1">
          <mxGeometry x="65" y="603" width="180" height="106.5" as="geometry" />
        </mxCell>
        <mxCell id="hMM3jDn0ftNgphWTLsed-44" value="SELESAI" style="ellipse;whiteSpace=wrap;html=1;" parent="hMM3jDn0ftNgphWTLsed-10" vertex="1">
          <mxGeometry x="107.5" y="743" width="95" height="53" as="geometry" />
        </mxCell>
        <mxCell id="hMM3jDn0ftNgphWTLsed-45" value="" style="endArrow=classic;html=1;rounded=0;entryX=0.5;entryY=0;entryDx=0;entryDy=0;" parent="hMM3jDn0ftNgphWTLsed-10" source="hMM3jDn0ftNgphWTLsed-38" target="hMM3jDn0ftNgphWTLsed-44" edge="1">
          <mxGeometry width="50" height="50" relative="1" as="geometry">
            <mxPoint x="90" y="673" as="sourcePoint" />
            <mxPoint x="140" y="623" as="targetPoint" />
          </mxGeometry>
        </mxCell>
        <mxCell id="hMM3jDn0ftNgphWTLsed-16" value="" style="edgeStyle=orthogonalEdgeStyle;rounded=0;orthogonalLoop=1;jettySize=auto;html=1;" parent="1" source="hMM3jDn0ftNgphWTLsed-12" target="hMM3jDn0ftNgphWTLsed-15" edge="1">
          <mxGeometry relative="1" as="geometry" />
        </mxCell>
        <mxCell id="hMM3jDn0ftNgphWTLsed-21" value="" style="endArrow=classic;html=1;rounded=0;exitX=0;exitY=0.5;exitDx=0;exitDy=0;entryX=0.5;entryY=1;entryDx=0;entryDy=0;" parent="1" source="hMM3jDn0ftNgphWTLsed-19" target="hMM3jDn0ftNgphWTLsed-12" edge="1">
          <mxGeometry width="50" height="50" relative="1" as="geometry">
            <mxPoint x="130" y="400" as="sourcePoint" />
            <mxPoint x="180" y="350" as="targetPoint" />
            <Array as="points">
              <mxPoint x="150" y="306" />
            </Array>
          </mxGeometry>
        </mxCell>
        <mxCell id="hMM3jDn0ftNgphWTLsed-34" value="" style="endArrow=classic;html=1;rounded=0;exitX=1;exitY=0.5;exitDx=0;exitDy=0;entryX=-0.014;entryY=0.606;entryDx=0;entryDy=0;entryPerimeter=0;" parent="1" source="hMM3jDn0ftNgphWTLsed-22" target="hMM3jDn0ftNgphWTLsed-24" edge="1">
          <mxGeometry width="50" height="50" relative="1" as="geometry">
            <mxPoint x="520" y="439" as="sourcePoint" />
            <mxPoint x="570" y="389" as="targetPoint" />
          </mxGeometry>
        </mxCell>
        <mxCell id="hMM3jDn0ftNgphWTLsed-35" value="" style="endArrow=classic;html=1;rounded=0;exitX=0;exitY=0.5;exitDx=0;exitDy=0;entryX=0.342;entryY=0.976;entryDx=0;entryDy=0;entryPerimeter=0;" parent="1" source="hMM3jDn0ftNgphWTLsed-30" target="hMM3jDn0ftNgphWTLsed-12" edge="1">
          <mxGeometry width="50" height="50" relative="1" as="geometry">
            <mxPoint x="360" y="530" as="sourcePoint" />
            <mxPoint x="410" y="480" as="targetPoint" />
            <Array as="points">
              <mxPoint x="120" y="530" />
            </Array>
          </mxGeometry>
        </mxCell>
        <mxCell id="hMM3jDn0ftNgphWTLsed-39" value="" style="edgeStyle=orthogonalEdgeStyle;rounded=0;orthogonalLoop=1;jettySize=auto;html=1;" parent="1" source="hMM3jDn0ftNgphWTLsed-32" target="hMM3jDn0ftNgphWTLsed-38" edge="1">
          <mxGeometry relative="1" as="geometry" />
        </mxCell>
      </root>
    </mxGraphModel>
  </diagram>
</mxfile>
